<svg width="38" height="38" viewBox="0 0 38 38" fill="none" xmlns="http://www.w3.org/2000/svg">
<g filter="url(#filter0_d_2234_25988)">
<rect width="39" height="39" rx="8.74138" fill="#6475E9"/>
</g>
<path d="M13.7175 19.6067C14.2594 19.6067 14.7655 19.6987 15.2307 19.8827C15.6959 20.0668 16.1049 20.3019 16.4525 20.5933C16.8001 20.8847 17.0711 21.1863 17.2653 21.5033C17.4596 21.8202 17.5567 22.1167 17.5567 22.3928L17.1989 22.1679V20.5218C17.1989 20.307 17.2704 20.1281 17.4085 19.985C17.5465 19.8418 17.7305 19.7652 17.9555 19.7652C18.1702 19.7652 18.3491 19.8367 18.4922 19.985C18.6354 20.1281 18.7121 20.3122 18.7121 20.5218V28.8085C18.7121 29.8412 18.4922 30.7 18.0577 31.3799C17.6232 32.0598 17.0404 32.571 16.3094 32.9135C15.5783 33.2561 14.7604 33.4248 13.8504 33.4248C13.4721 33.4248 13.0581 33.3736 12.6031 33.2714C12.1481 33.1691 11.7442 33.0465 11.3915 32.9033C11.0388 32.7602 10.7097 32.4987 10.7097 32.4987C10.7097 32.4987 10.4049 32.1927 10.364 32.0343C10.318 31.8758 10.3486 31.7275 10.4509 31.5895C10.5633 31.4106 10.7116 31.3237 10.8956 31.3237C11.0797 31.3237 11.3097 31.3799 11.5858 31.4924C11.6982 31.5282 11.8772 31.5946 12.1225 31.6815C12.3679 31.7684 12.644 31.8502 12.9558 31.9167C13.2625 31.9882 13.5693 32.0189 13.8709 32.0189C14.9444 32.0189 15.7675 31.7378 16.34 31.1754C16.9126 30.6131 17.1989 29.8718 17.1989 28.9516V27.1931L17.4085 27.2902C17.3318 27.6429 17.1784 27.9701 16.9433 28.2717C16.7081 28.5733 16.4269 28.8443 16.0895 29.0743C15.7573 29.3095 15.3841 29.4884 14.9853 29.6213C14.5815 29.7542 14.1725 29.8207 13.7533 29.8207C12.8689 29.8207 12.0765 29.6009 11.3711 29.1612C10.6656 28.7216 10.1084 28.1133 9.69939 27.3464C9.29042 26.5796 9.08594 25.7003 9.08594 24.7188C9.08594 23.7373 9.29042 22.8427 9.69939 22.0707C10.1084 21.3039 10.6656 20.7007 11.3659 20.2662C12.0663 19.8316 12.8485 19.6118 13.7226 19.6118L13.7175 19.6067ZM13.9067 21.0074C13.2625 21.0074 12.6849 21.1659 12.1737 21.4879C11.6624 21.81 11.2637 22.2497 10.9825 22.8018C10.7014 23.359 10.5582 23.9929 10.5582 24.7137C10.5582 25.4345 10.7014 26.0326 10.9825 26.595C11.2688 27.1573 11.6624 27.602 12.1737 27.9292C12.6849 28.2564 13.2625 28.42 13.9067 28.42C14.5508 28.42 15.1438 28.2615 15.6448 27.9394C16.1509 27.6174 16.5445 27.1777 16.8359 26.6256C17.1273 26.0684 17.2704 25.4345 17.2704 24.7137C17.2704 23.9929 17.1273 23.3385 16.8359 22.7864C16.5445 22.2343 16.1509 21.7947 15.6448 21.4828C15.1387 21.1659 14.561 21.0074 13.9067 21.0074Z" fill="#FFFDF5" stroke="#FFFDF5" stroke-width="0.255606" stroke-miterlimit="10"/>
<path d="M29.898 24.7137C29.898 25.6952 29.6782 26.5745 29.2437 27.3413C28.8091 28.1082 28.2212 28.7165 27.4851 29.1561C26.749 29.5958 25.9157 29.8156 24.9955 29.8156C24.0753 29.8156 23.242 29.5958 22.5008 29.1561C21.7544 28.7165 21.1665 28.1082 20.732 27.3413C20.2975 26.5745 20.0776 25.6952 20.0776 24.7137C20.0776 23.7322 20.2975 22.8529 20.732 22.0861C21.1665 21.3193 21.7544 20.7109 22.5008 20.2713C23.2472 19.8316 24.0753 19.6118 24.9955 19.6118C25.9157 19.6118 26.7438 19.8316 27.4851 20.2713C28.2212 20.7109 28.8091 21.3193 29.2437 22.0861C29.6782 22.8529 29.898 23.7322 29.898 24.7137ZM28.3848 24.7137C28.3848 23.9827 28.2366 23.3386 27.9401 22.7864C27.6436 22.2343 27.2397 21.7947 26.7285 21.4829C26.2173 21.171 25.6396 21.0074 24.9955 21.0074C24.3514 21.0074 23.7737 21.1659 23.2625 21.4829C22.7513 21.7998 22.3474 22.2343 22.0407 22.7864C21.7391 23.3437 21.5857 23.9827 21.5857 24.7137C21.5857 25.4447 21.7391 26.0684 22.0407 26.6256C22.3423 27.1829 22.7513 27.6174 23.2625 27.9395C23.7737 28.2615 24.3514 28.42 24.9955 28.42C25.6396 28.42 26.2173 28.2615 26.7285 27.9395C27.2397 27.6174 27.6436 27.1778 27.9401 26.6256C28.2366 26.0684 28.3848 25.4345 28.3848 24.7137Z" fill="#FFFDF5" stroke="#FFFDF5" stroke-width="0.255606" stroke-miterlimit="10"/>
<path d="M26.6453 17.8205C25.6162 17.8205 24.7124 17.6067 23.9392 17.1792C23.1661 16.7516 22.5653 16.1663 22.1317 15.4181C21.6981 14.6699 21.4839 13.8097 21.4839 12.8274C21.4839 11.7331 21.7085 10.8017 22.1526 10.0331C22.5966 9.25949 23.1765 8.66908 23.8922 8.26189C24.6079 7.85471 25.3654 7.65112 26.1647 7.65112C26.7551 7.65112 27.3297 7.75801 27.8835 7.97178C28.4372 8.18555 28.9283 8.49602 29.3515 8.9032C29.7746 9.31038 30.1194 9.799 30.3754 10.3741C30.6314 10.9442 30.7672 11.5804 30.7829 12.2879C30.7829 12.4864 30.7045 12.6594 30.553 12.7969C30.3963 12.9343 30.2187 13.0056 30.0097 13.0056H22.372L22.022 11.7077H29.4664L29.1582 11.9723V11.5601C29.1059 11.046 28.9283 10.6032 28.6253 10.2316C28.3223 9.86008 27.9566 9.57505 27.523 9.37655C27.0894 9.17805 26.6349 9.07626 26.1595 9.07626C25.7729 9.07626 25.3916 9.14242 25.0102 9.27476C24.6288 9.40709 24.2893 9.62086 23.9863 9.91607C23.6833 10.2113 23.4377 10.593 23.2497 11.0562C23.0616 11.5193 22.9675 12.0792 22.9675 12.7307C22.9675 13.4585 23.119 14.0998 23.422 14.6495C23.725 15.1992 24.1482 15.637 24.6863 15.9576C25.2296 16.2783 25.8565 16.436 26.5827 16.436C27.0319 16.436 27.429 16.3801 27.7633 16.2681C28.0977 16.1561 28.3902 16.0136 28.6358 15.8456C28.8813 15.6777 29.085 15.5046 29.2522 15.3265C29.4194 15.2145 29.5813 15.1585 29.7328 15.1585C29.9261 15.1585 30.0828 15.2196 30.2082 15.3468C30.3284 15.4741 30.3911 15.6217 30.3911 15.7998C30.3911 16.0136 30.2866 16.2019 30.0828 16.3648C29.7224 16.7567 29.2313 17.0977 28.6149 17.3929C27.9984 17.6881 27.3402 17.8357 26.6453 17.8357V17.8205Z" fill="#FFFDF5" stroke="#FFFDF5" stroke-width="0.389149" stroke-miterlimit="10"/>
<path d="M19.9245 7.8465H18.1533L18.1268 7.87295V15.3682C18.1268 15.6029 17.9448 15.8913 17.7296 15.9872C17.1643 16.2392 16.6263 15.8731 16.6354 15.2641L16.637 10.0959C16.541 8.35969 15.1622 7.39365 13.4762 7.71098C12.1958 7.95228 11.5279 9.00013 11.4997 10.2562C11.4633 11.8668 11.5519 13.4915 11.5171 15.1054C11.513 15.574 11.3789 16.0144 10.8401 16.0599C10.1614 16.1169 10.0348 15.6393 10.0257 15.0889C9.98678 12.7081 10.0522 10.3232 10.0257 7.94154L10.0075 7.84568H8.20068V15.4211C8.32318 16.983 9.39169 17.9135 10.9634 17.8292C12.3605 17.7548 13.2254 16.7631 13.3223 15.4037C13.3372 13.6089 13.2883 11.8082 13.3471 10.0166C13.4779 9.19598 14.7475 9.24309 14.8071 10.0835C14.8725 11.7908 14.7376 13.5436 14.8112 15.2459C14.8832 16.9011 15.9228 17.9259 17.6095 17.8292C18.9479 17.7523 19.8029 16.8078 19.932 15.5079C19.9162 13.018 20.0048 10.519 19.951 8.02913C19.951 7.99195 19.9535 7.85477 19.9237 7.84568L19.9245 7.8465Z" fill="#FFFDF5"/>
<path d="M19.9245 7.84693C19.9535 7.85602 19.951 7.9932 19.9518 8.03039C20.0056 10.5203 19.9171 13.0192 19.9328 15.5091C19.8029 16.809 18.9479 17.7536 17.6104 17.8304C15.9236 17.9271 14.8832 16.9024 14.812 15.2472C14.7384 13.5448 14.8733 11.7921 14.8079 10.0848C14.7483 9.24434 13.4779 9.19724 13.3479 10.0178C13.29 11.8086 13.338 13.6101 13.3231 15.405C13.2271 16.7644 12.3622 17.7561 10.9642 17.8304C9.39252 17.9147 8.32401 16.9842 8.20068 15.4224V7.84693H10.0075L10.0257 7.94279C10.0522 10.3244 9.98678 12.7085 10.0257 15.0902C10.0348 15.6405 10.1614 16.1182 10.8401 16.0611C11.3789 16.0157 11.513 15.5752 11.5171 15.1067C11.5519 13.4936 11.4633 11.8689 11.4997 10.2575C11.5279 9.00221 12.1958 7.95354 13.4762 7.71223C15.1622 7.3949 16.541 8.36012 16.637 10.0972L16.6354 15.2653C16.6271 15.8752 17.1643 16.2405 17.7296 15.9884C17.9448 15.8926 18.1268 15.6033 18.1268 15.3695V7.87338L18.1533 7.84693H19.9245Z" fill="#FFFDF5"/>
<defs>
<filter id="filter0_d_2234_25988" x="-0.0378792" y="-0.0378792" width="39.4546" height="39.4546" filterUnits="userSpaceOnUse" color-interpolation-filters="sRGB">
<feFlood flood-opacity="0" result="BackgroundImageFix"/>
<feColorMatrix in="SourceAlpha" type="matrix" values="0 0 0 0 0 0 0 0 0 0 0 0 0 0 0 0 0 0 127 0" result="hardAlpha"/>
<feMorphology radius="0.0378792" operator="dilate" in="SourceAlpha" result="effect1_dropShadow_2234_25988"/>
<feOffset dx="0.189396" dy="0.189396"/>
<feGaussianBlur stdDeviation="0.094698"/>
<feComposite in2="hardAlpha" operator="out"/>
<feColorMatrix type="matrix" values="0 0 0 0 0 0 0 0 0 0 0 0 0 0 0 0 0 0 0.25 0"/>
<feBlend mode="normal" in2="BackgroundImageFix" result="effect1_dropShadow_2234_25988"/>
<feBlend mode="normal" in="SourceGraphic" in2="effect1_dropShadow_2234_25988" result="shape"/>
</filter>
</defs>
</svg>
